<svg xmlns="http://www.w3.org/2000/svg" xmlns:xlink="http://www.w3.org/1999/xlink" width="191" height="32" viewBox="0 0 191 32">
  <defs>
    <clipPath id="clip-path">
      <rect id="사각형_6355" data-name="사각형 6355" width="174.662" height="25.137" fill="none"/>
    </clipPath>
  </defs>
  <g id="그룹_9027" data-name="그룹 9027" transform="translate(-20 -32)">
    <rect id="사각형_6356" data-name="사각형 6356" width="191" height="32" transform="translate(20 32)" fill="rgba(255,255,255,0)"/>
    <g id="그룹_9026" data-name="그룹 9026" transform="translate(27.472 32)">
      <g id="그룹_9025" data-name="그룹 9025" transform="translate(0 0)" clip-path="url(#clip-path)">
        <path id="패스_11" data-name="패스 11" d="M14.331,18.882a12.951,12.951,0,0,1-5.56,1.209C3.488,20.091,0,16.429,0,11.629,0,6.107,4.113,2.687,9.428,2.687a9.881,9.881,0,0,1,5.041,1.175l-.622,1.382A8.927,8.927,0,0,0,9.293,4.138c-4.941,0-7.6,3.245-7.6,7.287A6.967,6.967,0,0,0,9.013,18.64a11.109,11.109,0,0,0,4.834-1.106Z" transform="translate(-0.002 5.048)" fill="#19516b"/>
        <path id="패스_12" data-name="패스 12" d="M6.606,8.453c0-1.8-.035-3.556-.138-5.352H8.023l.069,3.59h.1c.829-2.312,2.626-4,5.076-4a2.93,2.93,0,0,1,.795.1V4.344a4.249,4.249,0,0,0-.967-.069c-2.312,0-4.074,1.935-4.627,4.8A8.068,8.068,0,0,0,8.3,10.7v8.977H6.606Z" transform="translate(12.154 5.046)" fill="#19516b"/>
        <path id="패스_13" data-name="패스 13" d="M27.159,11.18c0,6.216-4.834,8.911-8.908,8.911A8.277,8.277,0,0,1,9.72,11.56a8.57,8.57,0,0,1,8.77-8.873,8.24,8.24,0,0,1,8.669,8.493m-15.746.276a6.867,6.867,0,0,0,6.941,7.252,7.029,7.029,0,0,0,7.111-7.425c0-3.141-2.107-7.215-6.976-7.215-4.693,0-7.077,3.521-7.077,7.388" transform="translate(18.265 5.048)" fill="#19516b"/>
        <path id="패스_14" data-name="패스 14" d="M18.286,2.831l3.04,9.668c.619,2,1.1,3.59,1.517,5.11h.069c.449-1.451,1.071-3.107,1.831-5.11l3.694-9.668h1.693l3.521,9.633c.76,2.073,1.313,3.731,1.762,5.145h.069c.38-1.451.93-3.107,1.624-5.11L40.42,2.831h1.727L36.139,19.406h-1.52l-3.383-9.15a59.317,59.317,0,0,1-1.969-5.9H29.2c-.553,1.932-1.278,3.9-2.073,5.94L23.5,19.406H21.98L16.524,2.831Z" transform="translate(31.05 5.318)" fill="#19516b"/>
        <path id="패스_15" data-name="패스 15" d="M42.364,0V20.721c0,1.347.037,2.657.138,4H40.95l-.1-3.452h-.069a7.076,7.076,0,0,1-6.7,3.867A8,8,0,0,1,26.1,16.817c-.032-5.387,3.7-9.081,8.358-9.081A6.758,6.758,0,0,1,40.6,10.915h.069V0Zm-1.69,14.816a6.541,6.541,0,0,0-.207-1.624,6.029,6.029,0,0,0-5.974-4.074c-3.936,0-6.7,3-6.7,7.494,0,3.728,2.177,7.146,6.665,7.146A6.235,6.235,0,0,0,40.467,19.2a4.748,4.748,0,0,0,.207-1.451Z" transform="translate(49.044 -0.001)" fill="#19516b"/>
        <path id="패스_16" data-name="패스 16" d="M35.692,2.831l4.316,10.221c.795,1.866,1.382,3.245,1.9,4.7h.069c.553-1.451,1.241-2.934,2-4.7L48.4,2.831h1.794l-7.56,16.575h-1.52L33.861,2.831Z" transform="translate(63.628 5.318)" fill="#039fa0"/>
        <path id="패스_17" data-name="패스 17" d="M41.755,11.389c0,4.834,3.075,7.25,7.011,7.25A11.485,11.485,0,0,0,54.083,17.6l.452,1.347a13.328,13.328,0,0,1-5.942,1.14c-5.145,0-8.49-3.487-8.49-8.286,0-5.629,3.587-9.118,8.283-9.118,6.15,0,7.218,5.456,7.218,7.667a4.3,4.3,0,0,1-.066,1.036Zm12.089-1.347c.035-1.727-.694-5.974-5.663-5.974-4.215,0-5.974,3.455-6.32,5.974Z" transform="translate(75.355 5.046)" fill="#039fa0"/>
        <path id="패스_18" data-name="패스 18" d="M47.174,8.453c0-1.8-.035-3.556-.138-5.352h1.555l.069,3.59h.1c.829-2.312,2.626-4,5.076-4a2.945,2.945,0,0,1,.795.1V4.344a4.211,4.211,0,0,0-.964-.069c-2.315,0-4.077,1.935-4.63,4.8a8.073,8.073,0,0,0-.17,1.624v8.977h-1.7Z" transform="translate(88.385 5.046)" fill="#039fa0"/>
        <path id="패스_19" data-name="패스 19" d="M51.091,17.431a8.061,8.061,0,0,0,4.143,1.244c2.9,0,4.18-1.52,4.18-3.213,0-1.932-1.313-2.865-3.9-3.694-3-.967-4.488-2.519-4.488-4.488,0-2.346,1.866-4.592,5.456-4.592a7.23,7.23,0,0,1,4,1.106l-.654,1.382A6.331,6.331,0,0,0,56.167,4.1c-2.277,0-3.487,1.382-3.487,2.968,0,1.866,1.414,2.591,3.867,3.417,3.04,1.036,4.523,2.349,4.523,4.837,0,2.692-2.208,4.765-5.974,4.765a9.293,9.293,0,0,1-4.627-1.209Z" transform="translate(94.835 5.048)" fill="#039fa0"/>
        <path id="패스_20" data-name="패스 20" d="M56.936,11.389c0,4.834,3.075,7.25,7.011,7.25A11.5,11.5,0,0,0,69.265,17.6l.449,1.347a13.31,13.31,0,0,1-5.94,1.14c-5.145,0-8.493-3.487-8.493-8.286,0-5.629,3.59-9.118,8.286-9.118,6.147,0,7.218,5.456,7.218,7.667a4.123,4.123,0,0,1-.069,1.036Zm12.086-1.347c.035-1.727-.691-5.974-5.663-5.974-4.212,0-5.974,3.455-6.32,5.974Z" transform="translate(103.878 5.046)" fill="#039fa0"/>
      </g>
    </g>
  </g>
</svg>
